<svg width="50" height="72" viewBox="0 0 50 72" fill="none" xmlns="http://www.w3.org/2000/svg">
<path d="M50 72H0V21.0909L50 0V72Z" fill="#3A3A3A"/>
<path d="M9.36229 50.9091V41.0391H10.8183V50.9091H9.36229ZM12.1007 50.9091L16.4967 41.0391H17.7007L22.1107 50.9091H20.6267L19.5907 48.5011H14.5927L13.5707 50.9091H12.1007ZM17.0847 42.6491L15.1107 47.3251H19.1007L17.1127 42.6491H17.0847ZM23.2773 50.9091V44.0771H24.6493V45.1831C24.8546 44.7911 25.1393 44.4877 25.5033 44.2731C25.8673 44.0584 26.292 43.9511 26.7773 43.9511C27.8226 43.9511 28.4993 44.4084 28.8073 45.3231C29.022 44.8937 29.33 44.5577 29.7313 44.3151C30.1326 44.0724 30.59 43.9511 31.1033 43.9511C32.634 43.9511 33.3993 44.8657 33.3993 46.6951V50.9091H31.9853V46.7651C31.9853 46.1864 31.8826 45.7617 31.6773 45.4911C31.4813 45.2204 31.1546 45.0851 30.6973 45.0851C30.184 45.0851 29.778 45.2671 29.4793 45.6311C29.1806 45.9857 29.0313 46.4711 29.0313 47.0871V50.9091H27.6173V46.7651C27.6173 46.1864 27.5193 45.7617 27.3233 45.4911C27.1273 45.2204 26.8006 45.0851 26.3433 45.0851C25.83 45.0851 25.424 45.2671 25.1253 45.6311C24.836 45.9857 24.6913 46.4711 24.6913 47.0871V50.9091H23.2773ZM9.36229 65.9091V56.0391H13.4503C14.5143 56.0391 15.3356 56.3051 15.9143 56.8371C16.493 57.3597 16.7823 58.0971 16.7823 59.0491C16.7823 60.0104 16.493 60.7571 15.9143 61.2891C15.3356 61.8117 14.5143 62.0731 13.4503 62.0731H10.8183V65.9091H9.36229ZM10.8183 60.9111H13.2403C14.659 60.9111 15.3683 60.2904 15.3683 59.0491C15.3683 57.8171 14.659 57.2011 13.2403 57.2011H10.8183V60.9111ZM21.0549 66.0351C19.9349 66.0351 19.0529 65.7224 18.4089 65.0971C17.7649 64.4624 17.4429 63.5991 17.4429 62.5071C17.4429 61.8071 17.5829 61.1911 17.8629 60.6591C18.1523 60.1177 18.5489 59.6977 19.0529 59.3991C19.5569 59.1004 20.1356 58.9511 20.7889 58.9511C21.7316 58.9511 22.4736 59.2544 23.0149 59.8611C23.5563 60.4584 23.8269 61.2844 23.8269 62.3391V62.8151H18.8149C18.9176 64.2337 19.6689 64.9431 21.0689 64.9431C21.4609 64.9431 21.8436 64.8824 22.2169 64.7611C22.5996 64.6397 22.9589 64.4391 23.2949 64.1591L23.7149 65.1391C23.4069 65.4191 23.0103 65.6384 22.5249 65.7971C22.0396 65.9557 21.5496 66.0351 21.0549 66.0351ZM20.8449 59.9451C20.2569 59.9451 19.7903 60.1271 19.4449 60.4911C19.0996 60.8551 18.8896 61.3404 18.8149 61.9471H22.6369C22.6089 61.3124 22.4409 60.8224 22.1329 60.4771C21.8249 60.1224 21.3956 59.9451 20.8449 59.9451ZM25.2425 57.4951V56.0251H26.8945V57.4951H25.2425ZM25.3685 65.9091V59.0771H26.7825V65.9091H25.3685Z" fill="#FAF9F6"/>
<path d="M46.0714 50.9091L1.14441e-05 50.9091" stroke="black"/>
<path d="M46.4286 6.90906L46.4286 72" stroke="#FAF9F6"/>
<path d="M50 36L27.1429 36" stroke="black"/>
<path d="M3.57144 20L3.57144 57.8182" stroke="#FAF9F6"/>
</svg>
