<svg width="90" height="118" viewBox="0 0 90 118" fill="none" xmlns="http://www.w3.org/2000/svg">
<path d="M12.64 74V59.9H14.72V74H12.64ZM16.552 74L22.832 59.9H24.552L30.852 74H28.732L27.252 70.56H20.112L18.652 74H16.552ZM23.672 62.2L20.852 68.88H26.552L23.712 62.2H23.672ZM32.5186 74V64.24H34.4786V65.82C34.7719 65.26 35.1786 64.8267 35.6986 64.52C36.2186 64.2133 36.8253 64.06 37.5186 64.06C39.0119 64.06 39.9786 64.7133 40.4186 66.02C40.7253 65.4067 41.1653 64.9267 41.7386 64.58C42.3119 64.2333 42.9653 64.06 43.6986 64.06C45.8853 64.06 46.9786 65.3667 46.9786 67.98V74H44.9586V68.08C44.9586 67.2533 44.8119 66.6467 44.5186 66.26C44.2386 65.8733 43.7719 65.68 43.1186 65.68C42.3853 65.68 41.8053 65.94 41.3786 66.46C40.9519 66.9667 40.7386 67.66 40.7386 68.54V74H38.7186V68.08C38.7186 67.2533 38.5786 66.6467 38.2986 66.26C38.0186 65.8733 37.5519 65.68 36.8986 65.68C36.1653 65.68 35.5853 65.94 35.1586 66.46C34.7453 66.9667 34.5386 67.66 34.5386 68.54V74H32.5186ZM50.0228 74V59.9H55.8628C57.3828 59.9 58.5561 60.28 59.3828 61.04C60.2095 61.7867 60.6228 62.84 60.6228 64.2C60.6228 65.5733 60.2095 66.64 59.3828 67.4C58.5561 68.1467 57.3828 68.52 55.8628 68.52H52.1028V74H50.0228ZM52.1028 66.86H55.5628C57.5895 66.86 58.6028 65.9733 58.6028 64.2C58.6028 62.44 57.5895 61.56 55.5628 61.56H52.1028V66.86ZM66.7266 74.18C65.1266 74.18 63.8666 73.7333 62.9466 72.84C62.0266 71.9333 61.5666 70.7 61.5666 69.14C61.5666 68.14 61.7666 67.26 62.1666 66.5C62.5799 65.7267 63.1466 65.1267 63.8666 64.7C64.5866 64.2733 65.4132 64.06 66.3466 64.06C67.6932 64.06 68.7532 64.4933 69.5266 65.36C70.2999 66.2133 70.6866 67.3933 70.6866 68.9V69.58H63.5266C63.6732 71.6067 64.7466 72.62 66.7466 72.62C67.3066 72.62 67.8532 72.5333 68.3866 72.36C68.9332 72.1867 69.4466 71.9 69.9266 71.5L70.5266 72.9C70.0866 73.3 69.5199 73.6133 68.8266 73.84C68.1332 74.0667 67.4332 74.18 66.7266 74.18ZM66.4266 65.48C65.5866 65.48 64.9199 65.74 64.4266 66.26C63.9332 66.78 63.6332 67.4733 63.5266 68.34H68.9866C68.9466 67.4333 68.7066 66.7333 68.2666 66.24C67.8266 65.7333 67.2132 65.48 66.4266 65.48ZM72.7088 61.98V59.88H75.0688V61.98H72.7088ZM72.8888 74V64.24H74.9088V74H72.8888Z" fill="#FAF9F6"/>
<path d="M82.9286 79.8611L1.66927e-05 79.8611" stroke="black"/>
<path d="M83.5715 0.416626L83.5715 117.942" stroke="#FAF9F6"/>
<path d="M90 52.9419L48.8571 52.9419" stroke="black"/>
<path d="M6.42862 24.0531L6.42862 92.3359" stroke="#FAF9F6"/>
</svg>
