<svg width="90" height="130" viewBox="0 0 90 130" fill="none" xmlns="http://www.w3.org/2000/svg">
<rect width="90" height="130" fill="#B3B3B3"/>
<path d="M12.64 79V64.9H14.72V79H12.64ZM16.552 79L22.832 64.9H24.552L30.852 79H28.732L27.252 75.56H20.112L18.652 79H16.552ZM23.672 67.2L20.852 73.88H26.552L23.712 67.2H23.672ZM32.5186 79V69.24H34.4786V70.82C34.7719 70.26 35.1786 69.8267 35.6986 69.52C36.2186 69.2133 36.8253 69.06 37.5186 69.06C39.0119 69.06 39.9786 69.7133 40.4186 71.02C40.7253 70.4067 41.1653 69.9267 41.7386 69.58C42.3119 69.2333 42.9653 69.06 43.6986 69.06C45.8853 69.06 46.9786 70.3667 46.9786 72.98V79H44.9586V73.08C44.9586 72.2533 44.8119 71.6467 44.5186 71.26C44.2386 70.8733 43.7719 70.68 43.1186 70.68C42.3853 70.68 41.8053 70.94 41.3786 71.46C40.9519 71.9667 40.7386 72.66 40.7386 73.54V79H38.7186V73.08C38.7186 72.2533 38.5786 71.6467 38.2986 71.26C38.0186 70.8733 37.5519 70.68 36.8986 70.68C36.1653 70.68 35.5853 70.94 35.1586 71.46C34.7453 71.9667 34.5386 72.66 34.5386 73.54V79H32.5186ZM50.0228 79V64.9H55.8628C57.3828 64.9 58.5561 65.28 59.3828 66.04C60.2095 66.7867 60.6228 67.84 60.6228 69.2C60.6228 70.5733 60.2095 71.64 59.3828 72.4C58.5561 73.1467 57.3828 73.52 55.8628 73.52H52.1028V79H50.0228ZM52.1028 71.86H55.5628C57.5895 71.86 58.6028 70.9733 58.6028 69.2C58.6028 67.44 57.5895 66.56 55.5628 66.56H52.1028V71.86ZM66.7266 79.18C65.1266 79.18 63.8666 78.7333 62.9466 77.84C62.0266 76.9333 61.5666 75.7 61.5666 74.14C61.5666 73.14 61.7666 72.26 62.1666 71.5C62.5799 70.7267 63.1466 70.1267 63.8666 69.7C64.5866 69.2733 65.4132 69.06 66.3466 69.06C67.6932 69.06 68.7532 69.4933 69.5266 70.36C70.2999 71.2133 70.6866 72.3933 70.6866 73.9V74.58H63.5266C63.6732 76.6067 64.7466 77.62 66.7466 77.62C67.3066 77.62 67.8532 77.5333 68.3866 77.36C68.9332 77.1867 69.4466 76.9 69.9266 76.5L70.5266 77.9C70.0866 78.3 69.5199 78.6133 68.8266 78.84C68.1332 79.0667 67.4332 79.18 66.7266 79.18ZM66.4266 70.48C65.5866 70.48 64.9199 70.74 64.4266 71.26C63.9332 71.78 63.6332 72.4733 63.5266 73.34H68.9866C68.9466 72.4333 68.7066 71.7333 68.2666 71.24C67.8266 70.7333 67.2132 70.48 66.4266 70.48ZM72.7088 66.98V64.88H75.0688V66.98H72.7088ZM72.8888 79V69.24H74.9088V79H72.8888Z" fill="#FAF9F6"/>
<path d="M82.9286 84.8611L1.66927e-05 84.8611" stroke="black"/>
<path d="M83.5715 5.41663L83.5715 122.942" stroke="#FAF9F6"/>
<path d="M90 57.9419L48.8571 57.9419" stroke="black"/>
<path d="M6.42862 29.0531L6.42862 97.3359" stroke="#FAF9F6"/>
</svg>
